<svg baseProfile="full" xmlns="http://www.w3.org/2000/svg" viewBox="0 0 1400 800"><rect x="1300" y="400" rx="40" ry="40" width="300" height="300" stroke="transparent" fill="#1A73E8" fill-opacity=".5"><animateTransform attributeType="XML" attributeName="transform" begin="0s" dur="35s" type="rotate" from="0 1450 550" to="360 1450 550" repeatCount="indefinite"/></rect><path d="M100 350a150 150 0 1 1 300 0q0 20-20 20H120q-20 0-20-20" stroke="transparent" fill="#F5BE05" fill-opacity=".5"><animateMotion path="M 800 -200 L 800 -300 L 800 -200" dur="20s" begin="0s" repeatCount="indefinite"/><animateTransform attributeType="XML" attributeName="transform" begin="0s" dur="30s" type="rotate" values="0 210 530 ; -30 210 530 ; 0 210 530" keyTimes="0 ; 0.5 ; 1" repeatCount="indefinite"/></path><circle cx="200" cy="150" r="20" stroke="transparent" fill="#1a73e8" fill-opacity=".5"><animateMotion path="M 0 0 L 40 20 Z" dur="5s" repeatCount="indefinite"/></circle><path d="M165 580h105q5-2 0-10l-47-87q-3-3-6 0l-52 87q-5 8 0 10" stroke="transparent" fill="#EE675C" fill-opacity=".5"><animateTransform attributeType="XML" attributeName="transform" begin="0s" dur="35s" type="rotate" from="0 210 530" to="360 210 530" repeatCount="indefinite"/></path><circle cx="1200" cy="600" r="30" stroke="transparent" fill="#F1F3F4" fill-opacity=".5"><animateMotion path="M 0 0 L -20 40 Z" dur="9s" repeatCount="indefinite"/></circle><path d="M100 350a40 40 0 1 1 80 0v80a40 40 0 1 1-80 0Z" stroke="transparent" fill="#F1F3F4" fill-opacity=".5"><animateMotion path="M 750 -90 L 765 -95 L 750 -90" dur="20s" begin="0s" repeatCount="indefinite"/><animateTransform attributeType="XML" attributeName="transform" begin="0s" dur="30s" type="rotate" values="0 140 390; -60 140 390; 0 140 390" keyTimes="0 ; 0.5 ; 1" repeatCount="indefinite"/></path><rect x="500" y="435" rx="40" ry="40" width="100" height="100" stroke="transparent" fill="#1A73E8" fill-opacity=".5"><animateMotion path="M 0 0 L -35 60 L 30 80 Z" dur="10s" repeatCount="indefinite"/></rect></svg>